<svg xmlns="http://www.w3.org/2000/svg" viewBox="0 0 1200 900" width="1200" height="900">
  <defs>
    <!-- Gradients for thumbnails -->
    <linearGradient id="tealGrad" x1="0%" y1="0%" x2="100%" y2="100%">
      <stop offset="0%" stop-color="#5EEAD4"/>
      <stop offset="50%" stop-color="#4DA6A6"/>
      <stop offset="100%" stop-color="#2D7A7A"/>
    </linearGradient>
    <linearGradient id="coralGrad" x1="0%" y1="0%" x2="100%" y2="100%">
      <stop offset="0%" stop-color="#FDA4AF"/>
      <stop offset="50%" stop-color="#F87171"/>
      <stop offset="100%" stop-color="#DC2626"/>
    </linearGradient>
    <linearGradient id="goldGrad" x1="0%" y1="0%" x2="100%" y2="100%">
      <stop offset="0%" stop-color="#FDE68A"/>
      <stop offset="50%" stop-color="#FBBF24"/>
      <stop offset="100%" stop-color="#D97706"/>
    </linearGradient>
    <linearGradient id="grayGrad" x1="0%" y1="0%" x2="100%" y2="100%">
      <stop offset="0%" stop-color="#D1D5DB"/>
      <stop offset="50%" stop-color="#9CA3AF"/>
      <stop offset="100%" stop-color="#6B7280"/>
    </linearGradient>

    <!-- Patterns for thumbnails -->
    <pattern id="pattern1" patternUnits="userSpaceOnUse" width="40" height="40">
      <circle cx="20" cy="20" r="15" fill="rgba(255,255,255,0.1)"/>
    </pattern>
    <pattern id="pattern2" patternUnits="userSpaceOnUse" width="30" height="30">
      <rect x="0" y="0" width="15" height="15" fill="rgba(255,255,255,0.08)"/>
      <rect x="15" y="15" width="15" height="15" fill="rgba(255,255,255,0.08)"/>
    </pattern>
    <pattern id="pattern3" patternUnits="userSpaceOnUse" width="50" height="50">
      <path d="M0 25 L25 0 L50 25 L25 50 Z" fill="rgba(255,255,255,0.06)"/>
    </pattern>

    <!-- Icons -->
    <symbol id="icon-check" viewBox="0 0 24 24">
      <circle cx="12" cy="12" r="11" fill="#10B981"/>
      <path d="M7 12l3 3 7-7" stroke="#FFF" stroke-width="2.5" fill="none" stroke-linecap="round" stroke-linejoin="round"/>
    </symbol>

    <symbol id="icon-lock" viewBox="0 0 24 24">
      <rect x="5" y="10" width="14" height="12" rx="2" fill="#6B7280"/>
      <path d="M8 10V7a4 4 0 1 1 8 0v3" stroke="#6B7280" stroke-width="2.5" fill="none" stroke-linecap="round"/>
      <circle cx="12" cy="16" r="1.5" fill="#FFF"/>
    </symbol>

    <symbol id="icon-sparkle" viewBox="0 0 24 24">
      <path d="M12 2L13.5 8.5L20 10L13.5 11.5L12 18L10.5 11.5L4 10L10.5 8.5L12 2Z" fill="#FBBF24"/>
      <path d="M19 14L19.75 16.25L22 17L19.75 17.75L19 20L18.25 17.75L16 17L18.25 16.25L19 14Z" fill="#FBBF24"/>
    </symbol>

    <symbol id="icon-search" viewBox="0 0 24 24">
      <circle cx="10" cy="10" r="7" stroke="#9CA3AF" stroke-width="2" fill="none"/>
      <path d="M15 15L21 21" stroke="#9CA3AF" stroke-width="2" stroke-linecap="round"/>
    </symbol>

    <symbol id="icon-arrow" viewBox="0 0 24 24">
      <path d="M5 12h14M13 6l6 6-6 6" stroke="currentColor" stroke-width="2" fill="none" stroke-linecap="round" stroke-linejoin="round"/>
    </symbol>

    <symbol id="icon-chevron" viewBox="0 0 24 24">
      <path d="M6 9l6 6 6-6" stroke="#6B7280" stroke-width="2" fill="none" stroke-linecap="round" stroke-linejoin="round"/>
    </symbol>

  </defs>

  <!-- Background -->
  <rect width="1200" height="900" fill="#F9FAFB"/>

  <!-- ==================== HEADER ==================== -->
  <rect width="1200" height="120" fill="#FFFFFF"/>
  <rect y="119" width="1200" height="1" fill="#E5E7EB"/>

  <!-- Title and subtitle -->
  <text x="48" y="55" font-family="Inter, -apple-system, sans-serif" font-size="28" font-weight="700" fill="#111827">90 Day Etsy Accelerator</text>
  <text x="48" y="85" font-family="Inter, -apple-system, sans-serif" font-size="15" fill="#6B7280">Lifetime Access — All Current + Future Programs</text>

  <!-- Search bar -->
  <g transform="translate(750, 40)">
    <rect width="280" height="44" rx="8" fill="#F3F4F6" stroke="#E5E7EB" stroke-width="1"/>
    <use href="#icon-search" x="12" y="10" width="24" height="24"/>
    <text x="44" y="28" font-family="Inter, -apple-system, sans-serif" font-size="14" fill="#9CA3AF">Search courses...</text>
  </g>

  <!-- Filter dropdown -->
  <g transform="translate(1050, 40)">
    <rect width="130" height="44" rx="8" fill="#FFFFFF" stroke="#E5E7EB" stroke-width="1"/>
    <text x="16" y="28" font-family="Inter, -apple-system, sans-serif" font-size="14" fill="#374151">All Programs</text>
    <use href="#icon-chevron" x="98" y="10" width="24" height="24"/>
  </g>

  <!-- ==================== COURSE GRID ==================== -->
  <g transform="translate(48, 145)">

    <!-- ROW 1 -->

    <!-- Card 1: Digital Product Secrets (Complete) -->
    <g transform="translate(0, 0)">
      <rect width="352" height="240" rx="12" fill="#FFFFFF" stroke="#E5E7EB" stroke-width="1"/>
      <!-- Left accent -->
      <rect width="4" height="240" rx="2" fill="#4DA6A6"/>
      <!-- Thumbnail -->
      <rect x="12" y="12" width="328" height="130" rx="8" fill="url(#tealGrad)"/>
      <rect x="12" y="12" width="328" height="130" rx="8" fill="url(#pattern1)"/>
      <!-- Abstract shapes -->
      <circle cx="280" cy="60" r="40" fill="rgba(255,255,255,0.15)"/>
      <circle cx="100" cy="100" r="30" fill="rgba(255,255,255,0.1)"/>
      <!-- Complete badge -->
      <g transform="translate(280, 22)">
        <rect width="52" height="24" rx="4" fill="#10B981"/>
        <use href="#icon-check" x="4" y="2" width="20" height="20"/>
      </g>
      <!-- Title -->
      <text x="16" y="168" font-family="Inter, -apple-system, sans-serif" font-size="16" font-weight="600" fill="#111827">Digital Product Secrets</text>
      <!-- Progress bar -->
      <rect x="16" y="185" width="320" height="6" rx="3" fill="#E5E7EB"/>
      <rect x="16" y="185" width="320" height="6" rx="3" fill="#4DA6A6"/>
      <!-- Status -->
      <g transform="translate(16, 205)">
        <use href="#icon-check" x="0" y="0" width="18" height="18"/>
        <text x="24" y="14" font-family="Inter, -apple-system, sans-serif" font-size="13" font-weight="500" fill="#10B981">Complete</text>
      </g>
    </g>

    <!-- Card 2: AI Design Mastery (65%) -->
    <g transform="translate(376, 0)">
      <rect width="352" height="240" rx="12" fill="#FFFFFF" stroke="#E5E7EB" stroke-width="1"/>
      <rect width="4" height="240" rx="2" fill="#F87171"/>
      <rect x="12" y="12" width="328" height="130" rx="8" fill="url(#coralGrad)"/>
      <rect x="12" y="12" width="328" height="130" rx="8" fill="url(#pattern2)"/>
      <circle cx="60" cy="70" r="35" fill="rgba(255,255,255,0.12)"/>
      <circle cx="270" cy="90" r="45" fill="rgba(255,255,255,0.1)"/>
      <text x="16" y="168" font-family="Inter, -apple-system, sans-serif" font-size="16" font-weight="600" fill="#111827">AI Design Mastery</text>
      <rect x="16" y="185" width="320" height="6" rx="3" fill="#E5E7EB"/>
      <rect x="16" y="185" width="208" height="6" rx="3" fill="#F87171"/>
      <text x="16" y="218" font-family="Inter, -apple-system, sans-serif" font-size="13" fill="#6B7280">65% complete</text>
    </g>

    <!-- Card 3: Etsy SEO Deep Dive (30%) -->
    <g transform="translate(752, 0)">
      <rect width="352" height="240" rx="12" fill="#FFFFFF" stroke="#E5E7EB" stroke-width="1"/>
      <rect width="4" height="240" rx="2" fill="#FBBF24"/>
      <rect x="12" y="12" width="328" height="130" rx="8" fill="url(#goldGrad)"/>
      <rect x="12" y="12" width="328" height="130" rx="8" fill="url(#pattern3)"/>
      <circle cx="170" cy="75" r="50" fill="rgba(255,255,255,0.1)"/>
      <text x="16" y="168" font-family="Inter, -apple-system, sans-serif" font-size="16" font-weight="600" fill="#111827">Etsy SEO Deep Dive</text>
      <rect x="16" y="185" width="320" height="6" rx="3" fill="#E5E7EB"/>
      <rect x="16" y="185" width="96" height="6" rx="3" fill="#FBBF24"/>
      <text x="16" y="218" font-family="Inter, -apple-system, sans-serif" font-size="13" fill="#6B7280">30% complete</text>
    </g>

    <!-- ROW 2 -->

    <!-- Card 4: Pricing Psychology (Not Started) -->
    <g transform="translate(0, 260)">
      <rect width="352" height="240" rx="12" fill="#FFFFFF" stroke="#E5E7EB" stroke-width="1"/>
      <rect width="4" height="240" rx="2" fill="#4DA6A6"/>
      <rect x="12" y="12" width="328" height="130" rx="8" fill="url(#tealGrad)"/>
      <rect x="12" y="12" width="328" height="130" rx="8" fill="url(#pattern2)"/>
      <circle cx="300" cy="40" r="30" fill="rgba(255,255,255,0.12)"/>
      <circle cx="80" cy="110" r="40" fill="rgba(255,255,255,0.08)"/>
      <text x="16" y="168" font-family="Inter, -apple-system, sans-serif" font-size="16" font-weight="600" fill="#111827">Pricing Psychology</text>
      <rect x="16" y="185" width="320" height="6" rx="3" fill="#E5E7EB"/>
      <!-- Start button -->
      <g transform="translate(16, 200)">
        <rect width="130" height="32" rx="6" fill="#4DA6A6"/>
        <text x="16" y="21" font-family="Inter, -apple-system, sans-serif" font-size="13" font-weight="500" fill="#FFFFFF">Start Course</text>
        <path d="M100 12l8 4-8 4" stroke="#FFFFFF" stroke-width="2" fill="none" stroke-linecap="round" stroke-linejoin="round"/>
      </g>
    </g>

    <!-- Card 5: The $1K Week Blueprint (Not Started) -->
    <g transform="translate(376, 260)">
      <rect width="352" height="240" rx="12" fill="#FFFFFF" stroke="#E5E7EB" stroke-width="1"/>
      <rect width="4" height="240" rx="2" fill="#F87171"/>
      <rect x="12" y="12" width="328" height="130" rx="8" fill="url(#coralGrad)"/>
      <rect x="12" y="12" width="328" height="130" rx="8" fill="url(#pattern1)"/>
      <circle cx="170" cy="70" r="45" fill="rgba(255,255,255,0.12)"/>
      <text x="16" y="168" font-family="Inter, -apple-system, sans-serif" font-size="16" font-weight="600" fill="#111827">The $1K Week Blueprint</text>
      <rect x="16" y="185" width="320" height="6" rx="3" fill="#E5E7EB"/>
      <g transform="translate(16, 200)">
        <rect width="130" height="32" rx="6" fill="#F87171"/>
        <text x="16" y="21" font-family="Inter, -apple-system, sans-serif" font-size="13" font-weight="500" fill="#FFFFFF">Start Course</text>
        <path d="M100 12l8 4-8 4" stroke="#FFFFFF" stroke-width="2" fill="none" stroke-linecap="round" stroke-linejoin="round"/>
      </g>
    </g>

    <!-- Card 6: Passive Traffic Systems (NEW) -->
    <g transform="translate(752, 260)">
      <rect width="352" height="240" rx="12" fill="#FFFFFF" stroke="#E5E7EB" stroke-width="1"/>
      <rect width="4" height="240" rx="2" fill="#FBBF24"/>
      <rect x="12" y="12" width="328" height="130" rx="8" fill="url(#goldGrad)"/>
      <rect x="12" y="12" width="328" height="130" rx="8" fill="url(#pattern1)"/>
      <circle cx="260" cy="50" r="35" fill="rgba(255,255,255,0.15)"/>
      <circle cx="100" cy="100" r="25" fill="rgba(255,255,255,0.1)"/>
      <!-- NEW badge -->
      <g transform="translate(270, 22)">
        <rect width="62" height="26" rx="5" fill="#FBBF24"/>
        <use href="#icon-sparkle" x="2" y="1" width="24" height="24"/>
        <text x="28" y="18" font-family="Inter, -apple-system, sans-serif" font-size="11" font-weight="700" fill="#FFFFFF">NEW</text>
      </g>
      <text x="16" y="168" font-family="Inter, -apple-system, sans-serif" font-size="16" font-weight="600" fill="#111827">Passive Traffic Systems</text>
      <rect x="16" y="185" width="320" height="6" rx="3" fill="#E5E7EB"/>
      <g transform="translate(16, 200)">
        <rect width="130" height="32" rx="6" fill="#FBBF24"/>
        <text x="16" y="21" font-family="Inter, -apple-system, sans-serif" font-size="13" font-weight="600" fill="#FFFFFF">Start Course</text>
        <path d="M100 12l8 4-8 4" stroke="#FFFFFF" stroke-width="2" fill="none" stroke-linecap="round" stroke-linejoin="round"/>
      </g>
    </g>

    <!-- ROW 3 -->

    <!-- Card 7: Q4 Holiday Masterclass (Complete) -->
    <g transform="translate(0, 520)">
      <rect width="352" height="240" rx="12" fill="#FFFFFF" stroke="#E5E7EB" stroke-width="1"/>
      <rect width="4" height="240" rx="2" fill="#4DA6A6"/>
      <rect x="12" y="12" width="328" height="130" rx="8" fill="url(#tealGrad)"/>
      <rect x="12" y="12" width="328" height="130" rx="8" fill="url(#pattern3)"/>
      <circle cx="80" cy="60" r="40" fill="rgba(255,255,255,0.12)"/>
      <circle cx="280" cy="100" r="30" fill="rgba(255,255,255,0.08)"/>
      <g transform="translate(280, 22)">
        <rect width="52" height="24" rx="4" fill="#10B981"/>
        <use href="#icon-check" x="4" y="2" width="20" height="20"/>
      </g>
      <text x="16" y="168" font-family="Inter, -apple-system, sans-serif" font-size="16" font-weight="600" fill="#111827">Q4 Holiday Masterclass</text>
      <rect x="16" y="185" width="320" height="6" rx="3" fill="#E5E7EB"/>
      <rect x="16" y="185" width="320" height="6" rx="3" fill="#4DA6A6"/>
      <g transform="translate(16, 205)">
        <use href="#icon-check" x="0" y="0" width="18" height="18"/>
        <text x="24" y="14" font-family="Inter, -apple-system, sans-serif" font-size="13" font-weight="500" fill="#10B981">Complete</text>
      </g>
    </g>

    <!-- Card 8: 2026 Trends Masterclass (Locked) -->
    <g transform="translate(376, 520)">
      <rect width="352" height="240" rx="12" fill="#FFFFFF" stroke="#E5E7EB" stroke-width="1"/>
      <rect width="4" height="240" rx="2" fill="#9CA3AF"/>
      <rect x="12" y="12" width="328" height="130" rx="8" fill="url(#grayGrad)"/>
      <rect x="12" y="12" width="328" height="130" rx="8" fill="url(#pattern2)" opacity="0.5"/>
      <!-- Lock overlay -->
      <rect x="12" y="12" width="328" height="130" rx="8" fill="rgba(255,255,255,0.3)"/>
      <g transform="translate(140, 50)">
        <circle cx="36" cy="36" r="30" fill="rgba(107,114,128,0.9)"/>
        <use href="#icon-lock" x="18" y="16" width="36" height="36"/>
      </g>
      <!-- Coming soon badge -->
      <g transform="translate(220, 22)">
        <rect width="112" height="24" rx="4" fill="#6B7280"/>
        <text x="10" y="16" font-family="Inter, -apple-system, sans-serif" font-size="10" font-weight="500" fill="#FFFFFF">Coming Jan 2026</text>
      </g>
      <text x="16" y="168" font-family="Inter, -apple-system, sans-serif" font-size="16" font-weight="600" fill="#9CA3AF">2026 Trends Masterclass</text>
      <text x="16" y="195" font-family="Inter, -apple-system, sans-serif" font-size="13" fill="#9CA3AF">Available January 2026</text>
    </g>

    <!-- Card 9: Advanced Scaling Secrets (Locked) -->
    <g transform="translate(752, 520)">
      <rect width="352" height="240" rx="12" fill="#FFFFFF" stroke="#E5E7EB" stroke-width="1"/>
      <rect width="4" height="240" rx="2" fill="#9CA3AF"/>
      <rect x="12" y="12" width="328" height="130" rx="8" fill="url(#grayGrad)"/>
      <rect x="12" y="12" width="328" height="130" rx="8" fill="url(#pattern3)" opacity="0.5"/>
      <rect x="12" y="12" width="328" height="130" rx="8" fill="rgba(255,255,255,0.3)"/>
      <g transform="translate(140, 50)">
        <circle cx="36" cy="36" r="30" fill="rgba(107,114,128,0.9)"/>
        <use href="#icon-lock" x="18" y="16" width="36" height="36"/>
      </g>
      <g transform="translate(212, 22)">
        <rect width="120" height="24" rx="4" fill="#6B7280"/>
        <text x="10" y="16" font-family="Inter, -apple-system, sans-serif" font-size="10" font-weight="500" fill="#FFFFFF">Coming Mar 2026</text>
      </g>
      <text x="16" y="168" font-family="Inter, -apple-system, sans-serif" font-size="16" font-weight="600" fill="#9CA3AF">Advanced Scaling Secrets</text>
      <text x="16" y="195" font-family="Inter, -apple-system, sans-serif" font-size="13" fill="#9CA3AF">Available March 2026</text>
    </g>

  </g>

</svg>
