<svg xmlns="http://www.w3.org/2000/svg" width="1200" height="800" viewBox="0 0 1200 800">

  <!-- Background -->
  <rect width="1200" height="800" fill="#FFFFFF"/>

  <!-- Shadow under laptop -->
  <ellipse cx="600" cy="775" rx="450" ry="12" fill="#E0E0E0"/>

  <!-- DISPLAY LID -->
  <rect x="100" y="30" width="1000" height="580" rx="18" fill="#6D6D72"/>
  <rect x="106" y="36" width="988" height="568" rx="14" fill="#1A1A1A"/>
  <rect x="120" y="50" width="960" height="548" rx="6" fill="#0A0A0A"/>

  <!-- Camera -->
  <circle cx="600" cy="58" r="4" fill="#1F1F1F"/>
  <circle cx="600" cy="58" r="2" fill="#0A0A0A"/>
  <circle cx="610" cy="58" r="1.5" fill="#1A1A1A"/>

  <!-- SCREEN AREA -->
  <rect id="screen-area" x="168" y="68" width="864" height="520" rx="2" fill="#F5F5F5"/>

  <!-- HINGE -->
  <rect x="150" y="610" width="900" height="8" rx="2" fill="#4A4A4E"/>

  <!-- BODY BASE -->
  <rect x="60" y="618" width="1080" height="142" rx="8" fill="#6D6D72"/>
  <rect x="68" y="622" width="1064" height="130" rx="6" fill="#5A5A5E"/>
  <rect x="60" y="752" width="1080" height="10" rx="3" fill="#4A4A4E"/>

  <!-- KEYBOARD RECESS -->
  <rect x="140" y="638" width="920" height="80" rx="4" fill="#2D2D32"/>

  <!-- Function row keys -->
  <rect x="148" y="644" width="36" height="14" rx="2" fill="#1A1A1E"/>
  <rect x="190" y="644" width="52" height="14" rx="2" fill="#1A1A1E"/>
  <rect x="248" y="644" width="52" height="14" rx="2" fill="#1A1A1E"/>
  <rect x="306" y="644" width="52" height="14" rx="2" fill="#1A1A1E"/>
  <rect x="364" y="644" width="52" height="14" rx="2" fill="#1A1A1E"/>
  <rect x="422" y="644" width="52" height="14" rx="2" fill="#1A1A1E"/>
  <rect x="480" y="644" width="52" height="14" rx="2" fill="#1A1A1E"/>
  <rect x="538" y="644" width="52" height="14" rx="2" fill="#1A1A1E"/>
  <rect x="596" y="644" width="52" height="14" rx="2" fill="#1A1A1E"/>
  <rect x="654" y="644" width="52" height="14" rx="2" fill="#1A1A1E"/>
  <rect x="712" y="644" width="52" height="14" rx="2" fill="#1A1A1E"/>
  <rect x="770" y="644" width="52" height="14" rx="2" fill="#1A1A1E"/>
  <rect x="828" y="644" width="52" height="14" rx="2" fill="#1A1A1E"/>
  <rect x="886" y="644" width="52" height="14" rx="2" fill="#1A1A1E"/>
  <rect x="944" y="644" width="52" height="14" rx="2" fill="#1A1A1E"/>

  <!-- Number row -->
  <rect x="148" y="662" width="36" height="18" rx="2" fill="#1A1A1E"/>
  <rect x="188" y="662" width="36" height="18" rx="2" fill="#1A1A1E"/>
  <rect x="228" y="662" width="36" height="18" rx="2" fill="#1A1A1E"/>
  <rect x="268" y="662" width="36" height="18" rx="2" fill="#1A1A1E"/>
  <rect x="308" y="662" width="36" height="18" rx="2" fill="#1A1A1E"/>
  <rect x="348" y="662" width="36" height="18" rx="2" fill="#1A1A1E"/>
  <rect x="388" y="662" width="36" height="18" rx="2" fill="#1A1A1E"/>
  <rect x="428" y="662" width="36" height="18" rx="2" fill="#1A1A1E"/>
  <rect x="468" y="662" width="36" height="18" rx="2" fill="#1A1A1E"/>
  <rect x="508" y="662" width="36" height="18" rx="2" fill="#1A1A1E"/>
  <rect x="548" y="662" width="36" height="18" rx="2" fill="#1A1A1E"/>
  <rect x="588" y="662" width="36" height="18" rx="2" fill="#1A1A1E"/>
  <rect x="628" y="662" width="36" height="18" rx="2" fill="#1A1A1E"/>
  <rect x="668" y="662" width="60" height="18" rx="2" fill="#1A1A1E"/>

  <!-- QWERTY row -->
  <rect x="148" y="684" width="50" height="18" rx="2" fill="#1A1A1E"/>
  <rect x="202" y="684" width="36" height="18" rx="2" fill="#1A1A1E"/>
  <rect x="242" y="684" width="36" height="18" rx="2" fill="#1A1A1E"/>
  <rect x="282" y="684" width="36" height="18" rx="2" fill="#1A1A1E"/>
  <rect x="322" y="684" width="36" height="18" rx="2" fill="#1A1A1E"/>
  <rect x="362" y="684" width="36" height="18" rx="2" fill="#1A1A1E"/>
  <rect x="402" y="684" width="36" height="18" rx="2" fill="#1A1A1E"/>
  <rect x="442" y="684" width="36" height="18" rx="2" fill="#1A1A1E"/>
  <rect x="482" y="684" width="36" height="18" rx="2" fill="#1A1A1E"/>
  <rect x="522" y="684" width="36" height="18" rx="2" fill="#1A1A1E"/>
  <rect x="562" y="684" width="36" height="18" rx="2" fill="#1A1A1E"/>
  <rect x="602" y="684" width="36" height="18" rx="2" fill="#1A1A1E"/>
  <rect x="642" y="684" width="36" height="18" rx="2" fill="#1A1A1E"/>
  <rect x="682" y="684" width="46" height="18" rx="2" fill="#1A1A1E"/>

  <!-- Arrow keys area -->
  <rect x="740" y="662" width="80" height="18" rx="2" fill="#1A1A1E"/>
  <rect x="740" y="684" width="36" height="18" rx="2" fill="#1A1A1E"/>
  <rect x="780" y="684" width="36" height="18" rx="2" fill="#1A1A1E"/>
  <rect x="820" y="684" width="36" height="18" rx="2" fill="#1A1A1E"/>
  <rect x="860" y="662" width="80" height="40" rx="2" fill="#1A1A1E"/>
  <rect x="944" y="662" width="52" height="40" rx="2" fill="#1A1A1E"/>

  <!-- TRACKPAD -->
  <rect x="420" y="722" width="360" height="28" rx="4" fill="#5A5A5E"/>

  <!-- Speaker grilles left -->
  <rect x="90" y="650" width="36" height="44" rx="2" fill="#3D3D42"/>
  <circle cx="99" cy="659" r="2" fill="#2A2A2E"/>
  <circle cx="108" cy="659" r="2" fill="#2A2A2E"/>
  <circle cx="117" cy="659" r="2" fill="#2A2A2E"/>
  <circle cx="99" cy="668" r="2" fill="#2A2A2E"/>
  <circle cx="108" cy="668" r="2" fill="#2A2A2E"/>
  <circle cx="117" cy="668" r="2" fill="#2A2A2E"/>
  <circle cx="99" cy="677" r="2" fill="#2A2A2E"/>
  <circle cx="108" cy="677" r="2" fill="#2A2A2E"/>
  <circle cx="117" cy="677" r="2" fill="#2A2A2E"/>
  <circle cx="99" cy="686" r="2" fill="#2A2A2E"/>
  <circle cx="108" cy="686" r="2" fill="#2A2A2E"/>
  <circle cx="117" cy="686" r="2" fill="#2A2A2E"/>

  <!-- Speaker grilles right -->
  <rect x="1074" y="650" width="36" height="44" rx="2" fill="#3D3D42"/>
  <circle cx="1083" cy="659" r="2" fill="#2A2A2E"/>
  <circle cx="1092" cy="659" r="2" fill="#2A2A2E"/>
  <circle cx="1101" cy="659" r="2" fill="#2A2A2E"/>
  <circle cx="1083" cy="668" r="2" fill="#2A2A2E"/>
  <circle cx="1092" cy="668" r="2" fill="#2A2A2E"/>
  <circle cx="1101" cy="668" r="2" fill="#2A2A2E"/>
  <circle cx="1083" cy="677" r="2" fill="#2A2A2E"/>
  <circle cx="1092" cy="677" r="2" fill="#2A2A2E"/>
  <circle cx="1101" cy="677" r="2" fill="#2A2A2E"/>
  <circle cx="1083" cy="686" r="2" fill="#2A2A2E"/>
  <circle cx="1092" cy="686" r="2" fill="#2A2A2E"/>
  <circle cx="1101" cy="686" r="2" fill="#2A2A2E"/>

</svg>
