<svg xmlns="http://www.w3.org/2000/svg" width="1400" height="900" viewBox="0 0 1400 900">

  <!-- Background -->
  <rect width="1400" height="900" fill="#F0F0F0"/>

  <!-- ==================== FLOATING CALENDAR CARD ==================== -->
  <g transform="translate(1150, 40)">
    <rect width="220" height="120" rx="12" fill="#FFFFFF" stroke="#E5E7EB" stroke-width="1"/>

    <!-- Calendar icon -->
    <rect x="20" y="20" width="40" height="40" rx="8" fill="#4DA6A6"/>
    <rect x="20" y="20" width="40" height="12" rx="8 8 0 0" fill="#3D8B8B"/>
    <text x="40" y="50" text-anchor="middle" font-family="Inter, sans-serif" font-size="14" font-weight="700" fill="#FFFFFF">18</text>

    <!-- Event details -->
    <text x="72" y="35" font-family="Inter, -apple-system, sans-serif" font-size="14" font-weight="600" fill="#111827">Shop Audit Call</text>
    <text x="72" y="54" font-family="Inter, -apple-system, sans-serif" font-size="12" fill="#6B7280">Dec 18, 2024 at 2:00 PM</text>

    <!-- Confirmed badge -->
    <rect x="20" y="80" width="90" height="26" rx="6" fill="#D1FAE5"/>
    <circle cx="36" cy="93" r="6" fill="#10B981"/>
    <path d="M33 93l2 2 5-5" stroke="#FFFFFF" stroke-width="1.5" fill="none" stroke-linecap="round" stroke-linejoin="round"/>
    <text x="52" y="98" font-family="Inter, -apple-system, sans-serif" font-size="11" font-weight="500" fill="#059669">Confirmed</text>
  </g>

  <!-- MacBook Shadow -->
  <ellipse cx="700" cy="865" rx="520" ry="18" fill="#C0C0C0"/>

  <!-- ==================== MACBOOK BASE & KEYBOARD ==================== -->
  <rect x="180" y="810" width="1040" height="50" rx="4" fill="#E8E8E8"/>
  <rect x="200" y="815" width="1000" height="35" rx="2" fill="#D4D4D4"/>

  <!-- Keyboard rows hint -->
  <rect x="220" y="820" width="960" height="5" rx="1" fill="#C8C8C8"/>
  <rect x="220" y="828" width="960" height="5" rx="1" fill="#C8C8C8"/>
  <rect x="220" y="836" width="960" height="5" rx="1" fill="#C8C8C8"/>
  <rect x="350" y="844" width="500" height="4" rx="1" fill="#C8C8C8"/>

  <!-- Trackpad -->
  <rect x="550" y="855" width="300" height="6" rx="2" fill="#CCCCCC"/>

  <!-- MacBook Hinge -->
  <rect x="160" y="795" width="1080" height="20" rx="2" fill="#D8D8D8"/>

  <!-- ==================== MACBOOK SCREEN HOUSING ==================== -->
  <rect x="140" y="50" width="1120" height="755" rx="12" fill="#1A1A1A"/>

  <!-- Screen bezel -->
  <rect x="150" y="60" width="1100" height="735" rx="8" fill="#0D0D0D"/>

  <!-- Camera notch -->
  <circle cx="700" cy="72" r="4" fill="#2D2D2D"/>
  <circle cx="700" cy="72" r="2" fill="#1A1A1A"/>

  <!-- ==================== SCREEN CONTENT ==================== -->
  <rect x="165" y="85" width="1070" height="695" rx="4" fill="#242424"/>

  <!-- ==================== ZOOM TOP BAR ==================== -->
  <rect x="165" y="85" width="1070" height="40" fill="#1A1A1A"/>

  <!-- Meeting info -->
  <text x="185" y="112" font-family="Inter, -apple-system, sans-serif" font-size="13" font-weight="500" fill="#FFFFFF">Shop Audit Call — Sarah M.</text>

  <!-- Recording indicator -->
  <circle cx="400" cy="105" r="5" fill="#EF4444"/>
  <text x="412" y="110" font-family="Inter, -apple-system, sans-serif" font-size="11" fill="#EF4444">Recording</text>

  <!-- Participants -->
  <rect x="1100" y="93" width="50" height="22" rx="4" fill="#3D3D3D"/>
  <circle cx="1112" cy="104" r="6" stroke="#FFFFFF" stroke-width="1.5" fill="none"/>
  <circle cx="1112" cy="101" r="2" fill="#FFFFFF"/>
  <ellipse cx="1112" cy="108" rx="4" ry="3" fill="#FFFFFF"/>
  <text x="1130" y="109" font-family="Inter, -apple-system, sans-serif" font-size="11" fill="#FFFFFF">2</text>

  <!-- Time -->
  <text x="1180" y="110" font-family="Inter, -apple-system, sans-serif" font-size="12" fill="#9CA3AF">32:15</text>

  <!-- ==================== MAIN VIDEO AREA ==================== -->

  <!-- LEFT: Bailey's webcam (40%) -->
  <rect x="175" y="135" width="420" height="480" rx="6" fill="#4DA6A6"/>

  <!-- Bailey placeholder -->
  <rect x="195" y="155" width="380" height="420" fill="#3D9494"/>

  <!-- Placeholder silhouette -->
  <circle cx="385" cy="310" r="80" fill="#2D7A7A"/>
  <ellipse cx="385" cy="450" rx="110" ry="80" fill="#2D7A7A"/>

  <!-- BAILEY GOES HERE text -->
  <rect x="285" y="340" width="200" height="40" rx="6" fill="#1F5F5F"/>
  <text x="385" y="366" text-anchor="middle" font-family="Inter, -apple-system, sans-serif" font-size="14" font-weight="600" fill="#FFFFFF">BAILEY GOES HERE</text>

  <!-- Name label -->
  <rect x="185" y="575" width="120" height="28" rx="4" fill="rgba(0,0,0,0.6)"/>
  <text x="245" y="594" text-anchor="middle" font-family="Inter, -apple-system, sans-serif" font-size="12" font-weight="500" fill="#FFFFFF">Bailey Vann</text>

  <!-- Mic indicator -->
  <rect x="555" y="580" width="28" height="28" rx="4" fill="rgba(0,0,0,0.6)"/>
  <rect x="566" y="586" width="6" height="12" rx="3" fill="#FFFFFF"/>
  <path d="M564 594a8 8 0 0 0 16 0" stroke="#FFFFFF" stroke-width="1.5" fill="none"/>
  <line x1="572" y1="602" x2="572" y2="606" stroke="#FFFFFF" stroke-width="1.5"/>

  <!-- RIGHT: Screen share (60%) -->
  <rect x="605" y="135" width="620" height="480" rx="6" fill="#FFFFFF"/>

  <!-- Screen share label -->
  <rect x="605" y="135" width="620" height="32" fill="#F3F4F6"/>
  <circle cx="625" cy="151" r="6" fill="#10B981"/>
  <text x="640" y="156" font-family="Inter, -apple-system, sans-serif" font-size="11" fill="#374151">Sarah M. is sharing screen</text>

  <!-- ==================== ETSY SHOP MANAGER ==================== -->
  <rect x="615" y="175" width="600" height="430" fill="#FFFFFF"/>

  <!-- Etsy header -->
  <rect x="615" y="175" width="600" height="50" fill="#F56400"/>
  <text x="640" y="207" font-family="Inter, -apple-system, sans-serif" font-size="18" font-weight="700" fill="#FFFFFF">Shop Manager</text>

  <!-- Etsy logo placeholder -->
  <rect x="1150" y="188" width="50" height="24" rx="4" fill="#FFFFFF"/>
  <text x="1175" y="205" text-anchor="middle" font-family="Inter, sans-serif" font-size="11" font-weight="700" fill="#F56400">Etsy</text>

  <!-- Shop name -->
  <text x="640" y="250" font-family="Inter, -apple-system, sans-serif" font-size="16" font-weight="600" fill="#222222">Sarah's Digital Designs</text>

  <!-- Stats row -->
  <rect x="640" y="265" width="550" height="40" rx="6" fill="#F9FAFB"/>
  <text x="660" y="290" font-family="Inter, -apple-system, sans-serif" font-size="12" fill="#374151">Views:</text>
  <text x="700" y="290" font-family="Inter, -apple-system, sans-serif" font-size="12" font-weight="600" fill="#111827">847</text>
  <rect x="740" y="278" width="1" height="16" fill="#E5E7EB"/>
  <text x="760" y="290" font-family="Inter, -apple-system, sans-serif" font-size="12" fill="#374151">Visits:</text>
  <text x="798" y="290" font-family="Inter, -apple-system, sans-serif" font-size="12" font-weight="600" fill="#111827">523</text>
  <rect x="840" y="278" width="1" height="16" fill="#E5E7EB"/>
  <text x="860" y="290" font-family="Inter, -apple-system, sans-serif" font-size="12" fill="#374151">Orders:</text>
  <text x="908" y="290" font-family="Inter, -apple-system, sans-serif" font-size="12" font-weight="600" fill="#111827">12</text>
  <rect x="940" y="278" width="1" height="16" fill="#E5E7EB"/>
  <text x="960" y="290" font-family="Inter, -apple-system, sans-serif" font-size="12" fill="#374151">Revenue:</text>
  <text x="1020" y="290" font-family="Inter, -apple-system, sans-serif" font-size="12" font-weight="600" fill="#10B981">$487</text>

  <!-- Listings header -->
  <text x="640" y="335" font-family="Inter, -apple-system, sans-serif" font-size="14" font-weight="600" fill="#222222">Active Listings</text>

  <!-- ==================== LISTINGS GRID ==================== -->

  <!-- Listing 1 - CIRCLED -->
  <rect x="640" y="350" width="170" height="130" rx="6" fill="#FFFFFF" stroke="#E5E7EB" stroke-width="1"/>
  <rect x="648" y="358" width="154" height="80" rx="4" fill="#FEE2E2"/>
  <text x="725" y="402" text-anchor="middle" font-family="Inter, sans-serif" font-size="10" fill="#991B1B">Planner Bundle</text>
  <text x="656" y="458" font-family="Inter, -apple-system, sans-serif" font-size="9" fill="#374151">Digital Planner Template...</text>
  <text x="656" y="472" font-family="Inter, -apple-system, sans-serif" font-size="10" font-weight="600" fill="#111827">$24.99</text>

  <!-- Red circle annotation around Listing 1 -->
  <circle cx="725" cy="410" r="75" stroke="#EF4444" stroke-width="4" fill="none"/>

  <!-- Listing 2 -->
  <rect x="820" y="350" width="170" height="130" rx="6" fill="#FFFFFF" stroke="#E5E7EB" stroke-width="1"/>
  <rect x="828" y="358" width="154" height="80" rx="4" fill="#DBEAFE"/>
  <text x="905" y="402" text-anchor="middle" font-family="Inter, sans-serif" font-size="10" fill="#1E40AF">Social Calendar</text>
  <text x="836" y="458" font-family="Inter, -apple-system, sans-serif" font-size="9" fill="#374151">Content Calendar Pack...</text>
  <text x="836" y="472" font-family="Inter, -apple-system, sans-serif" font-size="10" font-weight="600" fill="#111827">$19.99</text>

  <!-- Listing 3 -->
  <rect x="1000" y="350" width="170" height="130" rx="6" fill="#FFFFFF" stroke="#E5E7EB" stroke-width="1"/>
  <rect x="1008" y="358" width="154" height="80" rx="4" fill="#F3E8FF"/>
  <text x="1085" y="402" text-anchor="middle" font-family="Inter, sans-serif" font-size="10" fill="#6B21A8">Budget Tracker</text>
  <text x="1016" y="458" font-family="Inter, -apple-system, sans-serif" font-size="9" fill="#374151">Finance Spreadsheet...</text>
  <text x="1016" y="472" font-family="Inter, -apple-system, sans-serif" font-size="10" font-weight="600" fill="#111827">$14.99</text>

  <!-- Listing 4 -->
  <rect x="640" y="490" width="170" height="100" rx="6" fill="#FFFFFF" stroke="#E5E7EB" stroke-width="1"/>
  <rect x="648" y="498" width="154" height="55" rx="4" fill="#D1FAE5"/>
  <text x="725" y="530" text-anchor="middle" font-family="Inter, sans-serif" font-size="10" fill="#065F46">Recipe Cards</text>
  <text x="656" y="568" font-family="Inter, -apple-system, sans-serif" font-size="9" fill="#374151">Recipe Template Set...</text>
  <text x="656" y="582" font-family="Inter, -apple-system, sans-serif" font-size="10" font-weight="600" fill="#111827">$12.99</text>

  <!-- Listing 5 -->
  <rect x="820" y="490" width="170" height="100" rx="6" fill="#FFFFFF" stroke="#E5E7EB" stroke-width="1"/>
  <rect x="828" y="498" width="154" height="55" rx="4" fill="#FEF3C7"/>
  <text x="905" y="530" text-anchor="middle" font-family="Inter, sans-serif" font-size="10" fill="#92400E">Wedding Suite</text>
  <text x="836" y="568" font-family="Inter, -apple-system, sans-serif" font-size="9" fill="#374151">Invitation Template...</text>
  <text x="836" y="582" font-family="Inter, -apple-system, sans-serif" font-size="10" font-weight="600" fill="#111827">$34.99</text>

  <!-- Listing 6 -->
  <rect x="1000" y="490" width="170" height="100" rx="6" fill="#FFFFFF" stroke="#E5E7EB" stroke-width="1"/>
  <rect x="1008" y="498" width="154" height="55" rx="4" fill="#FCE7F3"/>
  <text x="1085" y="530" text-anchor="middle" font-family="Inter, sans-serif" font-size="10" fill="#9D174D">Habit Tracker</text>
  <text x="1016" y="568" font-family="Inter, -apple-system, sans-serif" font-size="9" fill="#374151">Daily Habit Log...</text>
  <text x="1016" y="582" font-family="Inter, -apple-system, sans-serif" font-size="10" font-weight="600" fill="#111827">$9.99</text>

  <!-- ==================== ANNOTATIONS ==================== -->

  <!-- Arrow to title with annotation box -->
  <rect x="480" y="440" width="160" height="55" rx="6" fill="#EF4444"/>
  <text x="560" y="460" text-anchor="middle" font-family="Inter, -apple-system, sans-serif" font-size="10" font-weight="600" fill="#FFFFFF">This title is burying</text>
  <text x="560" y="476" text-anchor="middle" font-family="Inter, -apple-system, sans-serif" font-size="10" font-weight="600" fill="#FFFFFF">your keywords</text>
  <!-- Arrow line -->
  <path d="M640 467 L620 467" stroke="#EF4444" stroke-width="3" stroke-linecap="round"/>
  <path d="M628 460 L618 467 L628 474" fill="#EF4444"/>

  <!-- Arrow to photo annotation -->
  <rect x="920" y="260" width="140" height="35" rx="6" fill="#EF4444"/>
  <text x="990" y="283" text-anchor="middle" font-family="Inter, -apple-system, sans-serif" font-size="10" font-weight="600" fill="#FFFFFF">Let's fix this thumbnail</text>
  <!-- Arrow pointing down to listing 2 -->
  <path d="M990 295 L950 340" stroke="#EF4444" stroke-width="3" stroke-linecap="round"/>
  <path d="M958 332 L948 342 L960 340" fill="#EF4444"/>

  <!-- Handwritten priority note -->
  <g transform="translate(750, 320) rotate(-8)">
    <rect width="110" height="30" rx="4" fill="#FBBF24"/>
    <text x="55" y="20" text-anchor="middle" font-family="Inter, -apple-system, sans-serif" font-size="11" font-weight="700" fill="#78350F">Your #1 priority</text>
  </g>
  <!-- Arrow from priority to circled listing -->
  <path d="M780 350 L750 380" stroke="#FBBF24" stroke-width="2" stroke-linecap="round"/>

  <!-- ==================== ZOOM BOTTOM TOOLBAR ==================== -->
  <rect x="165" y="735" width="1070" height="45" fill="#1A1A1A"/>

  <!-- Mute button -->
  <rect x="400" y="745" width="70" height="28" rx="6" fill="#3D3D3D"/>
  <rect x="422" y="751" width="6" height="12" rx="3" fill="#FFFFFF"/>
  <path d="M420 759a8 8 0 0 0 16 0" stroke="#FFFFFF" stroke-width="1.5" fill="none"/>
  <line x1="428" y1="767" x2="428" y2="771" stroke="#FFFFFF" stroke-width="1.5"/>
  <text x="448" y="764" font-family="Inter, -apple-system, sans-serif" font-size="9" fill="#FFFFFF">Mute</text>

  <!-- Video button -->
  <rect x="480" y="745" width="70" height="28" rx="6" fill="#3D3D3D"/>
  <rect x="498" y="753" width="16" height="10" rx="2" fill="#FFFFFF"/>
  <path d="M514 755l6-3v12l-6-3z" fill="#FFFFFF"/>
  <text x="528" y="764" font-family="Inter, -apple-system, sans-serif" font-size="9" fill="#FFFFFF">Video</text>

  <!-- Share Screen button (active) -->
  <rect x="560" y="745" width="90" height="28" rx="6" fill="#10B981"/>
  <rect x="580" y="753" width="12" height="8" rx="1" fill="#FFFFFF"/>
  <path d="M586 756l0-4 8 0 0 4" stroke="#FFFFFF" stroke-width="1.5" fill="none"/>
  <text x="602" y="764" font-family="Inter, -apple-system, sans-serif" font-size="9" fill="#FFFFFF">Sharing</text>

  <!-- Chat button -->
  <rect x="660" y="745" width="60" height="28" rx="6" fill="#3D3D3D"/>
  <rect x="678" y="752" width="14" height="11" rx="2" fill="none" stroke="#FFFFFF" stroke-width="1.5"/>
  <path d="M678 760l7-4 7 4" stroke="#FFFFFF" stroke-width="1.5" fill="none"/>
  <text x="700" y="764" font-family="Inter, -apple-system, sans-serif" font-size="9" fill="#FFFFFF">Chat</text>

  <!-- End button -->
  <rect x="900" y="745" width="70" height="28" rx="6" fill="#EF4444"/>
  <text x="935" y="764" text-anchor="middle" font-family="Inter, -apple-system, sans-serif" font-size="10" font-weight="600" fill="#FFFFFF">End</text>

</svg>
