<svg xmlns="http://www.w3.org/2000/svg" width="1200" height="800" viewBox="0 0 1200 800">

  <!-- Background -->
  <rect width="1200" height="800" fill="#0A0A0A"/>

  <!-- ==================== BROWSER FRAME ==================== -->
  <rect x="40" y="30" width="1120" height="740" rx="12" fill="#1A1A1A" stroke="#333333" stroke-width="1"/>

  <!-- Browser Chrome -->
  <rect x="40" y="30" width="1120" height="44" rx="12 12 0 0" fill="#1F1F1F"/>
  <rect x="40" y="73" width="1120" height="1" fill="#333333"/>

  <!-- Traffic lights -->
  <circle cx="68" cy="52" r="6" fill="#FF5F57"/>
  <circle cx="88" cy="52" r="6" fill="#FFBD2E"/>
  <circle cx="108" cy="52" r="6" fill="#28CA41"/>

  <!-- URL Bar -->
  <rect x="200" y="40" width="600" height="28" rx="6" fill="#2D2D2D" stroke="#404040" stroke-width="1"/>

  <!-- Lock icon -->
  <rect x="216" y="49" width="8" height="7" rx="1" fill="none" stroke="#10B981" stroke-width="1.5"/>
  <path d="M218 49v-2a4 4 0 1 1 8 0v2" stroke="#10B981" stroke-width="1.5" fill="none" stroke-linecap="round"/>

  <!-- URL text -->
  <text x="236" y="58" font-family="Inter, -apple-system, sans-serif" font-size="12" fill="#9CA3AF">baileyvann.com/vault/secret</text>

  <!-- ==================== VIDEO PLAYER CONTAINER ==================== -->
  <rect x="80" y="100" width="1040" height="580" rx="12" fill="#111111"/>

  <!-- ==================== VIDEO THUMBNAIL AREA ==================== -->
  <rect x="100" y="120" width="1000" height="480" rx="8" fill="#0D0D0D"/>

  <!-- ==================== BLURRED/MYSTERY BACKGROUND ==================== -->

  <!-- Dark mysterious gradient base -->
  <rect x="100" y="120" width="1000" height="480" rx="8" fill="#1A1A2E"/>

  <!-- Blurred product shape 1 (left) -->
  <rect x="180" y="200" width="200" height="280" rx="12" fill="#2A2A40"/>
  <rect x="190" y="210" width="180" height="140" rx="8" fill="#3A3A55"/>
  <rect x="200" y="360" width="160" height="15" rx="4" fill="#4A4A65"/>
  <rect x="200" y="385" width="120" height="12" rx="4" fill="#3A3A50"/>
  <rect x="200" y="410" width="80" height="15" rx="4" fill="#4A4A65"/>
  <!-- Blur overlay -->
  <rect x="180" y="200" width="200" height="280" rx="12" fill="#1A1A2E" opacity="0.7"/>

  <!-- Blurred product shape 2 (center-right) -->
  <rect x="820" y="180" width="220" height="300" rx="12" fill="#2A2A40"/>
  <rect x="835" y="195" width="190" height="160" rx="8" fill="#3A3A55"/>
  <rect x="845" y="365" width="170" height="15" rx="4" fill="#4A4A65"/>
  <rect x="845" y="390" width="130" height="12" rx="4" fill="#3A3A50"/>
  <rect x="845" y="415" width="90" height="15" rx="4" fill="#4A4A65"/>
  <!-- Blur overlay -->
  <rect x="820" y="180" width="220" height="300" rx="12" fill="#1A1A2E" opacity="0.7"/>

  <!-- Blurred product shape 3 (bottom middle, partial) -->
  <rect x="450" y="400" width="180" height="200" rx="12" fill="#2A2A40"/>
  <rect x="465" y="415" width="150" height="100" rx="8" fill="#3A3A55"/>
  <rect x="475" y="525" width="130" height="12" rx="4" fill="#4A4A65"/>
  <rect x="475" y="545" width="100" height="10" rx="4" fill="#3A3A50"/>
  <!-- Blur overlay -->
  <rect x="450" y="400" width="180" height="200" rx="12" fill="#1A1A2E" opacity="0.75"/>

  <!-- Mystery glow effects around products -->
  <ellipse cx="280" cy="340" rx="130" ry="170" fill="#6366F1" opacity="0.08"/>
  <ellipse cx="930" cy="330" rx="140" ry="180" fill="#8B5CF6" opacity="0.08"/>
  <ellipse cx="540" cy="500" rx="120" ry="120" fill="#A855F7" opacity="0.06"/>

  <!-- ==================== FLOATING QUESTION MARKS ==================== -->
  <text x="160" y="180" font-family="Inter, sans-serif" font-size="36" font-weight="300" fill="#4B5563" opacity="0.4">?</text>
  <text x="360" y="520" font-family="Inter, sans-serif" font-size="28" font-weight="300" fill="#4B5563" opacity="0.3">?</text>
  <text x="750" y="200" font-family="Inter, sans-serif" font-size="32" font-weight="300" fill="#4B5563" opacity="0.35">?</text>
  <text x="1020" y="450" font-family="Inter, sans-serif" font-size="24" font-weight="300" fill="#4B5563" opacity="0.3">?</text>
  <text x="680" y="550" font-family="Inter, sans-serif" font-size="30" font-weight="300" fill="#4B5563" opacity="0.25">?</text>
  <text x="200" y="430" font-family="Inter, sans-serif" font-size="22" font-weight="300" fill="#4B5563" opacity="0.2">?</text>

  <!-- ==================== BAILEY PLACEHOLDER (center-left) ==================== -->
  <rect x="420" y="180" width="360" height="380" rx="12" fill="#374151"/>

  <!-- Placeholder silhouette -->
  <circle cx="600" cy="300" r="70" fill="#4B5563"/>
  <ellipse cx="600" cy="430" rx="100" ry="75" fill="#4B5563"/>

  <!-- BAILEY GOES HERE text -->
  <rect x="500" y="340" width="200" height="44" rx="8" fill="#1F2937"/>
  <text x="600" y="368" text-anchor="middle" font-family="Inter, -apple-system, sans-serif" font-size="14" font-weight="600" fill="#9CA3AF">BAILEY GOES HERE</text>

  <!-- Secretive expression hint -->
  <circle cx="580" cy="290" r="6" fill="#6B7280"/>
  <circle cx="620" cy="290" r="6" fill="#6B7280"/>
  <path d="M580 310 Q600 318 620 310" stroke="#6B7280" stroke-width="3" fill="none" stroke-linecap="round"/>

  <!-- Subtle glow around Bailey -->
  <ellipse cx="600" cy="360" rx="200" ry="220" fill="#FBBF24" opacity="0.04"/>

  <!-- ==================== BADGE OVERLAY (top right) ==================== -->
  <g transform="translate(900, 140)">
    <rect width="180" height="50" rx="8" fill="#FBBF24"/>
    <!-- Crystal ball icon -->
    <circle cx="30" cy="25" r="14" fill="#F59E0B"/>
    <circle cx="30" cy="25" r="11" fill="#FCD34D"/>
    <ellipse cx="30" cy="35" rx="8" ry="3" fill="#D97706"/>
    <!-- Sparkle -->
    <circle cx="25" cy="20" r="2" fill="#FFFFFF"/>
    <text x="55" y="22" font-family="Inter, -apple-system, sans-serif" font-size="10" font-weight="600" fill="#78350F">Early Mover</text>
    <text x="55" y="37" font-family="Inter, -apple-system, sans-serif" font-size="12" font-weight="700" fill="#78350F">Advantage</text>
  </g>

  <!-- 2026 badge -->
  <rect x="900" y="200" width="80" height="28" rx="6" fill="#7C3AED"/>
  <text x="940" y="219" text-anchor="middle" font-family="Inter, -apple-system, sans-serif" font-size="12" font-weight="700" fill="#FFFFFF">2026</text>

  <!-- ==================== LARGE PLAY BUTTON ==================== -->
  <circle cx="600" cy="360" r="55" fill="#FFFFFF" opacity="0.95"/>
  <circle cx="600" cy="360" r="52" fill="#FFFFFF"/>
  <path d="M585 335l40 25-40 25z" fill="#1A1A1A"/>

  <!-- ==================== VIDEO PLAYER CONTROLS ==================== -->
  <rect x="100" y="610" width="1000" height="50" fill="#0D0D0D"/>

  <!-- Progress bar -->
  <rect x="120" y="617" width="960" height="4" rx="2" fill="#333333"/>
  <circle cx="120" cy="619" r="6" fill="#FFFFFF"/>

  <!-- Play button -->
  <path d="M125 640l12 8-12 8z" fill="#FFFFFF"/>

  <!-- Volume -->
  <rect x="160" y="644" width="4" height="10" rx="1" fill="#FFFFFF"/>
  <path d="M164 644l6-4v18l-6-4z" fill="#FFFFFF"/>
  <rect x="180" y="647" width="50" height="4" rx="2" fill="#333333"/>
  <rect x="180" y="647" width="35" height="4" rx="2" fill="#FFFFFF"/>

  <!-- Time -->
  <text x="250" y="654" font-family="Inter, -apple-system, sans-serif" font-size="12" fill="#FFFFFF">0:00 / 18:47</text>

  <!-- Settings -->
  <circle cx="1000" cy="648" r="8" stroke="#FFFFFF" stroke-width="1.5" fill="none"/>
  <circle cx="1000" cy="648" r="3" fill="#FFFFFF"/>

  <!-- Fullscreen -->
  <rect x="1030" y="640" width="16" height="16" stroke="#FFFFFF" stroke-width="2" fill="none"/>
  <path d="M1030 644v-4h4M1042 644v-4h-4M1030 652v4h4M1042 652v4h-4" stroke="#FFFFFF" stroke-width="2" fill="none" stroke-linecap="round"/>

  <!-- HD -->
  <rect x="1060" y="640" width="24" height="16" rx="2" fill="#333333"/>
  <text x="1072" y="652" text-anchor="middle" font-family="Inter, sans-serif" font-size="9" font-weight="600" fill="#FFFFFF">HD</text>

  <!-- ==================== VIDEO TITLE & DESCRIPTION ==================== -->
  <rect x="80" y="685" width="1040" height="85" fill="#111111"/>

  <!-- Title -->
  <text x="100" y="715" font-family="Inter, -apple-system, sans-serif" font-size="18" font-weight="700" fill="#FFFFFF">The New Digital Product No One on Etsy Is Selling... Yet</text>

  <!-- Vault badge -->
  <rect x="680" y="697" width="100" height="24" rx="4" fill="#7C3AED"/>
  <text x="730" y="714" text-anchor="middle" font-family="Inter, -apple-system, sans-serif" font-size="11" font-weight="600" fill="#FFFFFF">Vault Exclusive</text>

  <!-- Duration -->
  <rect x="1040" y="697" width="60" height="24" rx="4" fill="#333333"/>
  <text x="1070" y="714" text-anchor="middle" font-family="Inter, -apple-system, sans-serif" font-size="11" fill="#FFFFFF">18:47</text>

  <!-- Description -->
  <text x="100" y="750" font-family="Inter, -apple-system, sans-serif" font-size="13" fill="#9CA3AF">Low competition. High margin. Almost nobody knows about it yet. This is your early-mover advantage for 2026.</text>

  <!-- Mystery sparkle elements -->
  <circle cx="150" y="640" r="2" fill="#FBBF24" opacity="0.6"/>
  <circle cx="1050" y="130" r="3" fill="#A855F7" opacity="0.5"/>
  <circle cx="120" y="200" r="2" fill="#6366F1" opacity="0.4"/>

</svg>
