<svg xmlns="http://www.w3.org/2000/svg" viewBox="0 0 1920 1080" width="1920" height="1080">
  <defs>
    <!-- Gradients -->
    <linearGradient id="titleBarGrad" x1="0%" y1="0%" x2="0%" y2="100%">
      <stop offset="0%" style="stop-color:#3d3d3d"/>
      <stop offset="100%" style="stop-color:#2d2d2d"/>
    </linearGradient>
    <linearGradient id="toolbarGrad" x1="0%" y1="0%" x2="0%" y2="100%">
      <stop offset="0%" style="stop-color:#232323"/>
      <stop offset="100%" style="stop-color:#1a1a1a"/>
    </linearGradient>
    <linearGradient id="participantTileGrad" x1="0%" y1="0%" x2="0%" y2="100%">
      <stop offset="0%" style="stop-color:#3a3a3a"/>
      <stop offset="100%" style="stop-color:#2a2a2a"/>
    </linearGradient>
    <linearGradient id="chatGrad" x1="0%" y1="0%" x2="0%" y2="100%">
      <stop offset="0%" style="stop-color:#242424"/>
      <stop offset="100%" style="stop-color:#1c1c1c"/>
    </linearGradient>
    <linearGradient id="screenShareGrad" x1="0%" y1="0%" x2="0%" y2="100%">
      <stop offset="0%" style="stop-color:#0D9488"/>
      <stop offset="100%" style="stop-color:#0F766E"/>
    </linearGradient>

    <!-- Drop shadows -->
    <filter id="dropShadow" x="-20%" y="-20%" width="140%" height="140%">
      <feDropShadow dx="0" dy="4" stdDeviation="8" flood-color="#000" flood-opacity="0.5"/>
    </filter>
    <filter id="smallShadow" x="-10%" y="-10%" width="120%" height="120%">
      <feDropShadow dx="0" dy="2" stdDeviation="3" flood-color="#000" flood-opacity="0.4"/>
    </filter>

    <!-- Avatar silhouette -->
    <symbol id="avatarIcon" viewBox="0 0 40 40">
      <circle cx="20" cy="14" r="8" fill="#666"/>
      <ellipse cx="20" cy="38" rx="14" ry="12" fill="#666"/>
    </symbol>

    <!-- Microphone icons -->
    <symbol id="micOn" viewBox="0 0 24 24">
      <rect x="8" y="2" width="8" height="14" rx="4" fill="#4ade80"/>
      <path d="M5 11v2a7 7 0 0014 0v-2" stroke="#4ade80" stroke-width="2" fill="none"/>
      <line x1="12" y1="20" x2="12" y2="24" stroke="#4ade80" stroke-width="2"/>
    </symbol>
    <symbol id="micOff" viewBox="0 0 24 24">
      <rect x="8" y="2" width="8" height="14" rx="4" fill="#ef4444"/>
      <path d="M5 11v2a7 7 0 0014 0v-2" stroke="#ef4444" stroke-width="2" fill="none"/>
      <line x1="12" y1="20" x2="12" y2="24" stroke="#ef4444" stroke-width="2"/>
      <line x1="3" y1="3" x2="21" y2="21" stroke="#ef4444" stroke-width="2.5"/>
    </symbol>

    <!-- Speaking indicator glow -->
    <filter id="speakingGlow">
      <feGaussianBlur stdDeviation="2" result="blur"/>
      <feMerge>
        <feMergeNode in="blur"/>
        <feMergeNode in="SourceGraphic"/>
      </feMerge>
    </filter>
  </defs>

  <!-- Main window background -->
  <rect width="1920" height="1080" fill="#1a1a1a"/>

  <!-- ==================== TITLE BAR ==================== -->
  <rect x="0" y="0" width="1920" height="36" fill="url(#titleBarGrad)"/>

  <!-- Traffic light buttons -->
  <circle cx="20" cy="18" r="6" fill="#ff5f57"/>
  <circle cx="42" cy="18" r="6" fill="#febc2e"/>
  <circle cx="64" cy="18" r="6" fill="#28c840"/>

  <!-- Title bar text -->
  <text x="960" y="23" fill="#e0e0e0" font-family="SF Pro Display, -apple-system, BlinkMacSystemFont, Helvetica, Arial, sans-serif" font-size="13" font-weight="500" text-anchor="middle">Zoom Meeting</text>

  <!-- Meeting info icons -->
  <g transform="translate(1820, 8)">
    <!-- Lock icon -->
    <rect x="0" y="8" width="10" height="8" rx="1" fill="none" stroke="#888" stroke-width="1.5"/>
    <path d="M2 8V5a3 3 0 016 0v3" fill="none" stroke="#888" stroke-width="1.5"/>
  </g>

  <!-- ==================== MAIN CONTENT AREA ==================== -->

  <!-- LEFT SIDE: Main speaker area (60%) -->
  <g transform="translate(20, 50)">
    <!-- Main speaker container -->
    <rect x="0" y="0" width="1080" height="730" rx="8" fill="#2a2a2a" stroke="#444" stroke-width="1"/>

    <!-- Placeholder box for Bailey -->
    <rect x="40" y="40" width="1000" height="580" rx="4" fill="#1e1e1e" stroke="#0ea5e9" stroke-width="3" stroke-dasharray="15,10"/>

    <!-- Placeholder text -->
    <text x="540" y="300" fill="#0ea5e9" font-family="SF Pro Display, -apple-system, Helvetica, Arial, sans-serif" font-size="32" font-weight="600" text-anchor="middle">BAILEY GOES HERE</text>
    <text x="540" y="345" fill="#666" font-family="SF Pro Display, -apple-system, Helvetica, Arial, sans-serif" font-size="18" text-anchor="middle">Drop photo here — maintain this aspect ratio</text>

    <!-- Corner markers for alignment -->
    <path d="M60 60 L60 90 M60 60 L90 60" stroke="#0ea5e9" stroke-width="2" fill="none"/>
    <path d="M1020 60 L1020 90 M1020 60 L990 60" stroke="#0ea5e9" stroke-width="2" fill="none"/>
    <path d="M60 600 L60 570 M60 600 L90 600" stroke="#0ea5e9" stroke-width="2" fill="none"/>
    <path d="M1020 600 L1020 570 M1020 600 L990 600" stroke="#0ea5e9" stroke-width="2" fill="none"/>

    <!-- Name label bar -->
    <rect x="40" y="640" width="280" height="36" rx="4" fill="rgba(0,0,0,0.7)"/>
    <text x="60" y="664" fill="#fff" font-family="SF Pro Display, -apple-system, Helvetica, Arial, sans-serif" font-size="15" font-weight="500">Bailey Vann</text>

    <!-- Host badge -->
    <rect x="168" y="648" width="45" height="20" rx="3" fill="#0ea5e9"/>
    <text x="190" y="662" fill="#fff" font-family="SF Pro Display, -apple-system, Helvetica, Arial, sans-serif" font-size="11" font-weight="600" text-anchor="middle">Host</text>

    <!-- Unmuted mic icon for Bailey -->
    <g transform="translate(228, 648)">
      <rect width="20" height="20" rx="3" fill="rgba(74,222,128,0.2)"/>
      <use href="#micOn" x="2" y="2" width="16" height="16"/>
    </g>

    <!-- Speaking indicator (green border) -->
    <rect x="40" y="40" width="1000" height="580" rx="4" fill="none" stroke="#4ade80" stroke-width="4" opacity="0.8"/>
  </g>

  <!-- RIGHT SIDE: Gallery view (40%) - 2 columns x 4 rows -->
  <g transform="translate(1120, 50)">
    <!-- Participant tiles -->

    <!-- Row 1 -->
    <!-- Sarah M. - Speaking -->
    <g transform="translate(0, 0)">
      <rect width="185" height="175" rx="6" fill="url(#participantTileGrad)" stroke="#4ade80" stroke-width="3"/>
      <rect x="50" y="25" width="85" height="85" rx="42" fill="#4a4a4a"/>
      <use href="#avatarIcon" x="52" y="27" width="80" height="80"/>
      <rect x="5" y="145" width="120" height="24" rx="3" fill="rgba(0,0,0,0.7)"/>
      <text x="12" y="162" fill="#fff" font-family="SF Pro Display, -apple-system, Helvetica, Arial, sans-serif" font-size="12">Sarah M.</text>
      <g transform="translate(100, 148)">
        <use href="#micOn" x="0" y="0" width="18" height="18"/>
      </g>
    </g>

    <!-- Jessica T. -->
    <g transform="translate(195, 0)">
      <rect width="185" height="175" rx="6" fill="url(#participantTileGrad)" stroke="#444" stroke-width="1"/>
      <rect x="50" y="25" width="85" height="85" rx="42" fill="#4a4a4a"/>
      <use href="#avatarIcon" x="52" y="27" width="80" height="80"/>
      <rect x="5" y="145" width="120" height="24" rx="3" fill="rgba(0,0,0,0.7)"/>
      <text x="12" y="162" fill="#fff" font-family="SF Pro Display, -apple-system, Helvetica, Arial, sans-serif" font-size="12">Jessica T.</text>
      <g transform="translate(100, 148)">
        <use href="#micOff" x="0" y="0" width="18" height="18"/>
      </g>
    </g>

    <!-- Row 2 -->
    <!-- Amanda K. - Speaking -->
    <g transform="translate(0, 185)">
      <rect width="185" height="175" rx="6" fill="url(#participantTileGrad)" stroke="#4ade80" stroke-width="3"/>
      <rect x="50" y="25" width="85" height="85" rx="42" fill="#4a4a4a"/>
      <use href="#avatarIcon" x="52" y="27" width="80" height="80"/>
      <rect x="5" y="145" width="120" height="24" rx="3" fill="rgba(0,0,0,0.7)"/>
      <text x="12" y="162" fill="#fff" font-family="SF Pro Display, -apple-system, Helvetica, Arial, sans-serif" font-size="12">Amanda K.</text>
      <g transform="translate(100, 148)">
        <use href="#micOn" x="0" y="0" width="18" height="18"/>
      </g>
    </g>

    <!-- Rachel B. -->
    <g transform="translate(195, 185)">
      <rect width="185" height="175" rx="6" fill="url(#participantTileGrad)" stroke="#444" stroke-width="1"/>
      <rect x="50" y="25" width="85" height="85" rx="42" fill="#4a4a4a"/>
      <use href="#avatarIcon" x="52" y="27" width="80" height="80"/>
      <rect x="5" y="145" width="120" height="24" rx="3" fill="rgba(0,0,0,0.7)"/>
      <text x="12" y="162" fill="#fff" font-family="SF Pro Display, -apple-system, Helvetica, Arial, sans-serif" font-size="12">Rachel B.</text>
      <g transform="translate(100, 148)">
        <use href="#micOff" x="0" y="0" width="18" height="18"/>
      </g>
    </g>

    <!-- Row 3 -->
    <!-- Michelle L. -->
    <g transform="translate(0, 370)">
      <rect width="185" height="175" rx="6" fill="url(#participantTileGrad)" stroke="#444" stroke-width="1"/>
      <rect x="50" y="25" width="85" height="85" rx="42" fill="#4a4a4a"/>
      <use href="#avatarIcon" x="52" y="27" width="80" height="80"/>
      <rect x="5" y="145" width="120" height="24" rx="3" fill="rgba(0,0,0,0.7)"/>
      <text x="12" y="162" fill="#fff" font-family="SF Pro Display, -apple-system, Helvetica, Arial, sans-serif" font-size="12">Michelle L.</text>
      <g transform="translate(100, 148)">
        <use href="#micOff" x="0" y="0" width="18" height="18"/>
      </g>
    </g>

    <!-- Christina H. - Speaking -->
    <g transform="translate(195, 370)">
      <rect width="185" height="175" rx="6" fill="url(#participantTileGrad)" stroke="#4ade80" stroke-width="3"/>
      <rect x="50" y="25" width="85" height="85" rx="42" fill="#4a4a4a"/>
      <use href="#avatarIcon" x="52" y="27" width="80" height="80"/>
      <rect x="5" y="145" width="120" height="24" rx="3" fill="rgba(0,0,0,0.7)"/>
      <text x="12" y="162" fill="#fff" font-family="SF Pro Display, -apple-system, Helvetica, Arial, sans-serif" font-size="12">Christina H.</text>
      <g transform="translate(100, 148)">
        <use href="#micOn" x="0" y="0" width="18" height="18"/>
      </g>
    </g>

    <!-- Row 4 -->
    <!-- Lauren P. -->
    <g transform="translate(0, 555)">
      <rect width="185" height="175" rx="6" fill="url(#participantTileGrad)" stroke="#444" stroke-width="1"/>
      <rect x="50" y="25" width="85" height="85" rx="42" fill="#4a4a4a"/>
      <use href="#avatarIcon" x="52" y="27" width="80" height="80"/>
      <rect x="5" y="145" width="120" height="24" rx="3" fill="rgba(0,0,0,0.7)"/>
      <text x="12" y="162" fill="#fff" font-family="SF Pro Display, -apple-system, Helvetica, Arial, sans-serif" font-size="12">Lauren P.</text>
      <g transform="translate(100, 148)">
        <use href="#micOff" x="0" y="0" width="18" height="18"/>
      </g>
    </g>

    <!-- Katie S. -->
    <g transform="translate(195, 555)">
      <rect width="185" height="175" rx="6" fill="url(#participantTileGrad)" stroke="#444" stroke-width="1"/>
      <rect x="50" y="25" width="85" height="85" rx="42" fill="#4a4a4a"/>
      <use href="#avatarIcon" x="52" y="27" width="80" height="80"/>
      <rect x="5" y="145" width="120" height="24" rx="3" fill="rgba(0,0,0,0.7)"/>
      <text x="12" y="162" fill="#fff" font-family="SF Pro Display, -apple-system, Helvetica, Arial, sans-serif" font-size="12">Katie S.</text>
      <g transform="translate(100, 148)">
        <use href="#micOff" x="0" y="0" width="18" height="18"/>
      </g>
    </g>
  </g>

  <!-- ==================== SCREEN SHARE THUMBNAIL ==================== -->
  <g transform="translate(40, 580)" filter="url(#dropShadow)">
    <rect width="240" height="145" rx="6" fill="#1a1a1a" stroke="#555" stroke-width="2"/>

    <!-- Slide content -->
    <rect x="4" y="4" width="232" height="137" rx="4" fill="#fff"/>

    <!-- Teal header bar -->
    <rect x="4" y="4" width="232" height="35" rx="4" fill="url(#screenShareGrad)"/>
    <rect x="4" y="25" width="232" height="14" fill="url(#screenShareGrad)"/>

    <!-- BV Logo -->
    <text x="20" y="28" fill="#fff" font-family="Georgia, serif" font-size="16" font-weight="700">BV</text>

    <!-- Slide title -->
    <text x="120" y="75" fill="#1a1a1a" font-family="SF Pro Display, -apple-system, Helvetica, Arial, sans-serif" font-size="12" font-weight="700" text-anchor="middle">Welcome to Your</text>
    <text x="120" y="92" fill="#1a1a1a" font-family="SF Pro Display, -apple-system, Helvetica, Arial, sans-serif" font-size="12" font-weight="700" text-anchor="middle">90-Day Sprint</text>

    <!-- Subtitle -->
    <text x="120" y="115" fill="#666" font-family="SF Pro Display, -apple-system, Helvetica, Arial, sans-serif" font-size="9" text-anchor="middle">Accelerator Kickoff Call</text>
    <text x="120" y="128" fill="#666" font-family="SF Pro Display, -apple-system, Helvetica, Arial, sans-serif" font-size="9" text-anchor="middle">December 2024</text>

    <!-- Screen share label -->
    <rect x="165" y="-12" width="85" height="20" rx="3" fill="#0ea5e9"/>
    <text x="207" y="2" fill="#fff" font-family="SF Pro Display, -apple-system, Helvetica, Arial, sans-serif" font-size="10" font-weight="600" text-anchor="middle">Screen Share</text>
  </g>

  <!-- ==================== BOTTOM TOOLBAR ==================== -->
  <rect x="0" y="800" width="1920" height="80" fill="url(#toolbarGrad)"/>

  <!-- Toolbar buttons -->
  <g transform="translate(400, 810)">
    <!-- Mute button (unmuted) -->
    <g transform="translate(0, 0)">
      <rect width="90" height="60" rx="8" fill="#3a3a3a" class="toolbar-btn"/>
      <rect x="35" y="8" width="20" height="28" rx="10" fill="#4ade80"/>
      <path d="M28 25v4a17 17 0 0034 0v-4" stroke="#4ade80" stroke-width="2" fill="none" transform="scale(0.6) translate(20, 0)"/>
      <text x="45" y="52" fill="#fff" font-family="SF Pro Display, -apple-system, Helvetica, Arial, sans-serif" font-size="10" text-anchor="middle">Mute</text>
      <!-- Up arrow for audio options -->
      <polygon points="78,25 85,25 81.5,20" fill="#888"/>
    </g>

    <!-- Video button (on) -->
    <g transform="translate(100, 0)">
      <rect width="90" height="60" rx="8" fill="#3a3a3a"/>
      <rect x="28" y="12" width="26" height="18" rx="3" fill="#4ade80"/>
      <polygon points="56,14 66,21 56,28" fill="#4ade80"/>
      <text x="45" y="52" fill="#fff" font-family="SF Pro Display, -apple-system, Helvetica, Arial, sans-serif" font-size="10" text-anchor="middle">Video</text>
      <polygon points="78,25 85,25 81.5,20" fill="#888"/>
    </g>

    <!-- Security -->
    <g transform="translate(200, 0)">
      <rect width="90" height="60" rx="8" fill="#3a3a3a"/>
      <rect x="35" y="16" width="16" height="14" rx="2" fill="none" stroke="#fff" stroke-width="2"/>
      <path d="M38 16V12a5 5 0 0110 0v4" fill="none" stroke="#fff" stroke-width="2"/>
      <text x="45" y="52" fill="#fff" font-family="SF Pro Display, -apple-system, Helvetica, Arial, sans-serif" font-size="10" text-anchor="middle">Security</text>
    </g>

    <!-- Participants -->
    <g transform="translate(300, 0)">
      <rect width="110" height="60" rx="8" fill="#3a3a3a"/>
      <circle cx="45" cy="18" r="8" fill="none" stroke="#fff" stroke-width="2"/>
      <ellipse cx="45" cy="32" rx="12" ry="6" fill="none" stroke="#fff" stroke-width="2"/>
      <text x="55" y="52" fill="#fff" font-family="SF Pro Display, -apple-system, Helvetica, Arial, sans-serif" font-size="10" text-anchor="middle">Participants</text>
      <!-- Count badge -->
      <rect x="75" y="8" width="28" height="18" rx="9" fill="#0ea5e9"/>
      <text x="89" y="21" fill="#fff" font-family="SF Pro Display, -apple-system, Helvetica, Arial, sans-serif" font-size="11" font-weight="600" text-anchor="middle">24</text>
    </g>

    <!-- Chat -->
    <g transform="translate(420, 0)">
      <rect width="70" height="60" rx="8" fill="#3a3a3a"/>
      <rect x="22" y="12" width="24" height="20" rx="3" fill="none" stroke="#fff" stroke-width="2"/>
      <polygon points="28,32 22,38 28,35" fill="#fff"/>
      <text x="35" y="52" fill="#fff" font-family="SF Pro Display, -apple-system, Helvetica, Arial, sans-serif" font-size="10" text-anchor="middle">Chat</text>
      <!-- Notification dot -->
      <circle cx="52" cy="14" r="6" fill="#ef4444"/>
    </g>

    <!-- Share Screen -->
    <g transform="translate(500, 0)">
      <rect width="100" height="60" rx="8" fill="#4ade80"/>
      <rect x="30" y="10" width="24" height="18" rx="2" fill="none" stroke="#1a1a1a" stroke-width="2"/>
      <path d="M42 22L42 16 M38 19L42 16L46 19" stroke="#1a1a1a" stroke-width="2" fill="none"/>
      <text x="50" y="52" fill="#1a1a1a" font-family="SF Pro Display, -apple-system, Helvetica, Arial, sans-serif" font-size="10" font-weight="600" text-anchor="middle">Share Screen</text>
    </g>

    <!-- Record -->
    <g transform="translate(610, 0)">
      <rect width="75" height="60" rx="8" fill="#3a3a3a"/>
      <circle cx="38" cy="20" r="10" fill="none" stroke="#fff" stroke-width="2"/>
      <circle cx="38" cy="20" r="5" fill="#ef4444"/>
      <text x="38" y="52" fill="#fff" font-family="SF Pro Display, -apple-system, Helvetica, Arial, sans-serif" font-size="10" text-anchor="middle">Record</text>
    </g>

    <!-- Reactions -->
    <g transform="translate(695, 0)">
      <rect width="90" height="60" rx="8" fill="#3a3a3a"/>
      <text x="45" y="26" font-size="22" text-anchor="middle">😀</text>
      <text x="45" y="52" fill="#fff" font-family="SF Pro Display, -apple-system, Helvetica, Arial, sans-serif" font-size="10" text-anchor="middle">Reactions</text>
    </g>

    <!-- End button -->
    <g transform="translate(810, 0)">
      <rect width="80" height="60" rx="8" fill="#ef4444"/>
      <text x="40" y="30" fill="#fff" font-family="SF Pro Display, -apple-system, Helvetica, Arial, sans-serif" font-size="18" font-weight="600" text-anchor="middle">End</text>
    </g>
  </g>

  <!-- Meeting time indicator -->
  <g transform="translate(1750, 820)">
    <rect width="130" height="40" rx="6" fill="#3a3a3a"/>
    <circle cx="20" cy="20" r="5" fill="#ef4444">
      <animate attributeName="opacity" values="1;0.3;1" dur="1.5s" repeatCount="indefinite"/>
    </circle>
    <text x="75" y="26" fill="#fff" font-family="SF Pro Display, -apple-system, Helvetica, Arial, sans-serif" font-size="15" font-weight="500" text-anchor="middle">01:23:45</text>
  </g>

  <!-- ==================== CHAT SIDEBAR ==================== -->
  <g transform="translate(1520, 36)">
    <rect width="400" height="764" fill="url(#chatGrad)"/>

    <!-- Chat header -->
    <rect x="0" y="0" width="400" height="50" fill="#2a2a2a"/>
    <text x="20" y="32" fill="#fff" font-family="SF Pro Display, -apple-system, Helvetica, Arial, sans-serif" font-size="16" font-weight="600">Meeting Chat</text>
    <!-- Close button -->
    <text x="370" y="30" fill="#888" font-family="SF Pro Display, -apple-system, Helvetica, Arial, sans-serif" font-size="20">×</text>

    <!-- Chat messages -->
    <g transform="translate(15, 70)">
      <!-- Message 1 -->
      <g transform="translate(0, 0)">
        <text x="0" y="0" fill="#0ea5e9" font-family="SF Pro Display, -apple-system, Helvetica, Arial, sans-serif" font-size="13" font-weight="600">Sarah M.</text>
        <text x="65" y="0" fill="#666" font-family="SF Pro Display, -apple-system, Helvetica, Arial, sans-serif" font-size="11">1:23 PM</text>
        <text x="0" y="22" fill="#e0e0e0" font-family="SF Pro Display, -apple-system, Helvetica, Arial, sans-serif" font-size="14">So excited to finally be here! 🎉</text>
      </g>

      <!-- Message 2 -->
      <g transform="translate(0, 60)">
        <text x="0" y="0" fill="#0ea5e9" font-family="SF Pro Display, -apple-system, Helvetica, Arial, sans-serif" font-size="13" font-weight="600">Michelle L.</text>
        <text x="78" y="0" fill="#666" font-family="SF Pro Display, -apple-system, Helvetica, Arial, sans-serif" font-size="11">1:24 PM</text>
        <text x="0" y="22" fill="#e0e0e0" font-family="SF Pro Display, -apple-system, Helvetica, Arial, sans-serif" font-size="14">Ready to delete some listings 😅</text>
      </g>

      <!-- Message 3 -->
      <g transform="translate(0, 120)">
        <text x="0" y="0" fill="#0ea5e9" font-family="SF Pro Display, -apple-system, Helvetica, Arial, sans-serif" font-size="13" font-weight="600">Amanda K.</text>
        <text x="78" y="0" fill="#666" font-family="SF Pro Display, -apple-system, Helvetica, Arial, sans-serif" font-size="11">1:24 PM</text>
        <text x="0" y="22" fill="#e0e0e0" font-family="SF Pro Display, -apple-system, Helvetica, Arial, sans-serif" font-size="14">Let's gooo! 🔥</text>
      </g>

      <!-- Message 4 -->
      <g transform="translate(0, 180)">
        <text x="0" y="0" fill="#0ea5e9" font-family="SF Pro Display, -apple-system, Helvetica, Arial, sans-serif" font-size="13" font-weight="600">Rachel B.</text>
        <text x="65" y="0" fill="#666" font-family="SF Pro Display, -apple-system, Helvetica, Arial, sans-serif" font-size="11">1:25 PM</text>
        <text x="0" y="22" fill="#e0e0e0" font-family="SF Pro Display, -apple-system, Helvetica, Arial, sans-serif" font-size="14">This is exactly what I needed 💪</text>
      </g>
    </g>

    <!-- Chat input -->
    <g transform="translate(10, 700)">
      <rect x="0" y="0" width="380" height="50" rx="8" fill="#3a3a3a"/>
      <text x="15" y="30" fill="#666" font-family="SF Pro Display, -apple-system, Helvetica, Arial, sans-serif" font-size="14">Type message here...</text>
      <!-- Send button -->
      <rect x="330" y="10" width="40" height="30" rx="5" fill="#0ea5e9"/>
      <polygon points="342,25 360,25 351,18" fill="#fff"/>
    </g>
  </g>

  <!-- Divider line between main content and chat -->
  <line x1="1520" y1="36" x2="1520" y2="800" stroke="#333" stroke-width="1"/>

  <!-- ==================== VIEW MODE TOGGLE ==================== -->
  <g transform="translate(1080, 10)">
    <rect width="100" height="24" rx="4" fill="#3a3a3a"/>
    <rect x="2" y="2" width="48" height="20" rx="3" fill="#0ea5e9"/>
    <text x="26" y="16" fill="#fff" font-family="SF Pro Display, -apple-system, Helvetica, Arial, sans-serif" font-size="10" font-weight="500" text-anchor="middle">Speaker</text>
    <text x="75" y="16" fill="#888" font-family="SF Pro Display, -apple-system, Helvetica, Arial, sans-serif" font-size="10" text-anchor="middle">Gallery</text>
  </g>
</svg>